<svg width="801" height="146" viewBox="0 0 801 146" fill="none" xmlns="http://www.w3.org/2000/svg">
<path d="M102.54 0.298828C108.537 3.57552 117.155 12.4222 122.249 20.2812C127.507 28.3937 131.701 39.9361 133.141 44.6934C135.081 42.7529 140.803 37.7825 148.164 33.4258C155.525 29.0694 165.627 26.7286 169.759 26.1025C172.2 32.2995 174.642 43.3785 174.642 50.7021C174.642 57.5041 173.327 67.1652 172.2 71.5469C175.33 70.8583 182.83 69.3314 187.787 68.7305C192.745 68.1296 200.619 68.9807 203.937 69.4814C203.686 74.677 202.734 86.4944 200.932 92.2031C198.678 99.3391 191.355 121.123 167.506 134.08C148.427 144.446 127.132 143.094 116.24 141.592C115.962 141.72 115.469 141.919 114.869 142.161C113.717 142.627 112.168 143.252 110.982 143.845C109.405 144.633 105.412 145.385 102.929 145.77L101.968 145.911C99.7142 145.598 94.7568 144.746 92.9541 143.845C91.7685 143.252 90.22 142.627 89.0674 142.161C88.4676 141.919 87.9748 141.72 87.6963 141.592C76.8046 143.094 55.5097 144.446 36.4307 134.08C12.5818 121.123 5.25832 99.3391 3.00488 92.2031C1.20221 86.4944 0.250402 74.677 0 69.4814C3.31752 68.9807 11.1918 68.1296 16.1494 68.7305C21.107 69.3314 28.6065 70.8583 31.7363 71.5469C30.6096 67.1652 29.2949 57.5041 29.2949 50.7021C29.295 43.3786 31.7356 32.2996 34.1768 26.1025C38.308 26.7285 48.4112 29.0692 55.7725 33.4258C63.1337 37.7825 68.8554 42.7529 70.7959 44.6934C72.2356 39.9361 76.4295 28.3937 81.6875 20.2812C86.9454 12.169 95.9586 3.00482 101.968 0L102.54 0.298828ZM100.256 77.8145C91.3241 85.1446 77.263 98.4473 78.4951 113.235C79.4816 125.074 85.4428 134.268 101.968 136.521L102.735 136.41C118.679 133.979 124.47 124.889 125.441 113.235C126.756 97.4613 110.669 83.3778 101.968 76.4297L100.256 77.8145ZM39.4355 84.1289C27.5813 78.07 19.3416 77.7436 10.5156 78.1191C10.5782 79.1832 10.9288 82.7388 11.8301 88.4473C12.9568 95.5832 19.7178 106.476 21.5957 108.354C23.4736 110.231 26.103 112.297 30.4219 112.297C34.7407 112.297 37.9331 110.419 38.8721 104.598C39.6232 99.9406 34.0523 98.2749 31.1729 98.0244V101.029C31.1729 102.156 30.9848 104.598 28.168 104.598C25.3512 104.598 23.2854 101.593 23.0977 97.0859C22.9099 92.579 29.4826 87.5086 36.4307 89.5742C43.3788 91.6399 47.8858 97.4618 46.5713 108.354C45.5195 117.066 36.7438 119.871 32.4873 120.184C32.2369 120.559 33.2761 122.099 39.4355 125.254C43.9871 127.585 45.5197 128.079 47.3701 128.675C48.6496 129.087 50.0809 129.549 52.7676 130.7C57.9491 132.921 70.973 133.196 76.9219 133.144C77.0263 133.176 77.1132 133.175 77.1807 133.142C77.0961 133.143 77.0096 133.143 76.9219 133.144C75.6692 132.756 71.8608 127.561 67.9785 116.053C62.7206 100.467 47.886 88.4482 39.4355 84.1289ZM193.42 78.1191C184.594 77.7436 176.355 78.0701 164.501 84.1289C156.051 88.4482 141.216 100.467 135.958 116.053C132.076 127.561 128.267 132.756 127.015 133.144C126.927 133.143 126.84 133.143 126.756 133.142C126.823 133.175 126.91 133.176 127.015 133.144C132.963 133.196 145.986 132.921 151.168 130.7C153.855 129.549 155.287 129.087 156.566 128.675C158.417 128.079 159.949 127.585 164.501 125.254C170.66 122.099 171.7 120.559 171.449 120.184C167.193 119.871 158.417 117.067 157.365 108.354C156.051 97.4618 160.558 91.6399 167.506 89.5742C174.454 87.5086 181.027 92.5791 180.839 97.0859C180.651 101.593 178.585 104.598 175.769 104.598C172.952 104.598 172.764 102.156 172.764 101.029V98.0244C169.884 98.2748 164.313 99.9406 165.064 104.598C166.003 110.419 169.196 112.297 173.515 112.297C177.834 112.297 180.463 110.231 182.341 108.354C184.219 106.476 190.979 95.5832 192.105 88.4473C193.007 82.7387 193.357 79.1832 193.42 78.1191ZM39.623 36.8057C38.6215 40.4361 37.1443 48.5612 37.7451 52.0166C37.8248 52.4748 37.9063 53.0563 38.001 53.7285C38.7987 59.3927 40.5111 71.5464 49.5752 71.5469C57.6876 71.5469 55.397 62.5327 53.1436 60.2793C52.3298 61.406 50.5143 63.8477 48.8242 63.8477C46.9465 63.8474 45.4443 61.7816 45.4443 59.5283C45.4444 57.2748 47.698 52.7679 52.3926 52.5801C57.0872 52.3923 64.3314 55.9605 63.6602 66.4766C63.2095 73.5374 56.336 78.8703 50.5146 79.9971C52.7681 81.4368 58.1012 85.2932 61.4062 89.1992C64.7113 93.1052 69.4189 98.5884 71.3594 100.842C71.5472 99.2143 72.8989 94.6074 76.8047 89.1992C80.7106 83.791 83.1893 80.8108 83.9404 79.9971C81.3113 70.4199 72.0352 56.8957 65.3496 51.2656C58.2137 45.2564 47.1345 37.7446 39.623 36.8057ZM164.313 36.8057C156.802 37.7446 145.723 45.2564 138.587 51.2656C131.901 56.8956 122.625 70.4199 119.996 79.9971C120.747 80.8109 123.226 83.7911 127.132 89.1992C131.038 94.6074 132.389 99.2143 132.577 100.842C134.518 98.5884 139.225 93.1052 142.53 89.1992C145.835 85.2932 151.168 81.4368 153.422 79.9971C147.6 78.8703 140.727 73.5374 140.276 66.4766C139.605 55.9605 146.849 52.3923 151.544 52.5801C156.239 52.7679 158.492 57.2748 158.492 59.5283C158.492 61.7816 156.99 63.8473 155.112 63.8477C153.422 63.8477 151.607 61.406 150.793 60.2793C148.54 62.5327 146.248 71.5466 154.36 71.5469C163.425 71.5469 165.138 59.3928 165.936 53.7285C166.03 53.0563 166.112 52.4748 166.191 52.0166C166.792 48.5611 165.315 40.4361 164.313 36.8057ZM101.247 11.335C97.559 14.6496 92.6848 20.3159 88.6357 26.4775C84.4737 32.8112 79.7464 46.3205 78.3066 52.5801C79.7463 54.2702 83.0771 58.3644 84.8799 61.2188C86.6826 64.0732 89.6368 70.2322 90.8887 72.9551L101.968 64.0352L113.048 72.9551C114.3 70.2322 117.254 64.0732 119.057 61.2188C120.859 58.3644 124.189 54.2702 125.629 52.5801C124.189 46.3204 119.463 32.8111 115.301 26.4775C110.982 19.9051 105.723 13.8955 101.968 10.7031L101.247 11.335Z" fill="#6A994E"/>
<path d="M250.968 89.3774L265.171 37.2056H283.593L260.577 105.456H248.671L250.968 89.3774ZM238.077 37.2056L252.28 89.3774L254.671 105.456H242.624L219.749 37.2056H238.077ZM310.358 106.393C306.233 106.393 302.546 105.752 299.296 104.471C296.046 103.159 293.296 101.362 291.046 99.0806C288.827 96.7993 287.124 94.1743 285.937 91.2056C284.78 88.2368 284.202 85.0962 284.202 81.7837V80.0024C284.202 76.2837 284.718 72.8462 285.749 69.6899C286.78 66.5024 288.312 63.7212 290.343 61.3462C292.374 58.9712 294.921 57.1274 297.983 55.8149C301.046 54.4712 304.608 53.7993 308.671 53.7993C312.265 53.7993 315.483 54.3774 318.327 55.5337C321.171 56.6899 323.577 58.3462 325.546 60.5024C327.546 62.6587 329.062 65.2681 330.093 68.3306C331.155 71.3931 331.687 74.8306 331.687 78.6431V85.0649H290.249V75.1743H316.265V73.9556C316.296 72.2681 315.999 70.8306 315.374 69.6431C314.78 68.4556 313.905 67.5493 312.749 66.9243C311.593 66.2993 310.187 65.9868 308.53 65.9868C306.812 65.9868 305.39 66.3618 304.265 67.1118C303.171 67.8618 302.312 68.8931 301.687 70.2056C301.093 71.4868 300.671 72.9712 300.421 74.6587C300.171 76.3462 300.046 78.1274 300.046 80.0024V81.7837C300.046 83.6587 300.296 85.3618 300.796 86.8931C301.327 88.4243 302.077 89.7368 303.046 90.8306C304.046 91.8931 305.233 92.7212 306.608 93.3149C308.015 93.9087 309.608 94.2056 311.39 94.2056C313.546 94.2056 315.671 93.7993 317.765 92.9868C319.858 92.1743 321.655 90.8306 323.155 88.9556L330.327 97.4868C329.296 98.9556 327.827 100.377 325.921 101.752C324.046 103.127 321.796 104.252 319.171 105.127C316.546 105.971 313.608 106.393 310.358 106.393ZM354.046 67.2993V105.456H338.249V54.7368H353.015L354.046 67.2993ZM369.046 54.3618L368.765 69.0337C368.14 68.9712 367.296 68.8931 366.233 68.7993C365.171 68.7056 364.28 68.6587 363.562 68.6587C361.718 68.6587 360.124 68.8774 358.78 69.3149C357.468 69.7212 356.374 70.3462 355.499 71.1899C354.655 72.0024 354.03 73.0337 353.624 74.2837C353.249 75.5337 353.077 76.9868 353.108 78.6431L350.249 76.7681C350.249 73.3618 350.577 70.2681 351.233 67.4868C351.921 64.6743 352.89 62.2524 354.14 60.2212C355.39 58.1587 356.905 56.5806 358.687 55.4868C360.468 54.3618 362.468 53.7993 364.687 53.7993C365.468 53.7993 366.233 53.8462 366.983 53.9399C367.765 54.0337 368.452 54.1743 369.046 54.3618ZM402.702 93.8306V33.4556H418.593V105.456H404.343L402.702 93.8306ZM371.577 80.7056V79.7212C371.577 75.8774 371.999 72.3774 372.843 69.2212C373.687 66.0337 374.937 63.2993 376.593 61.0181C378.249 58.7056 380.312 56.9243 382.78 55.6743C385.249 54.4243 388.093 53.7993 391.312 53.7993C394.187 53.7993 396.702 54.4712 398.858 55.8149C401.015 57.1274 402.858 58.9712 404.39 61.3462C405.921 63.7212 407.171 66.5024 408.14 69.6899C409.108 72.8462 409.843 76.2524 410.343 79.9087V81.0806C409.843 84.5181 409.108 87.7681 408.14 90.8306C407.171 93.8618 405.921 96.5493 404.39 98.8931C402.858 101.237 400.999 103.081 398.812 104.424C396.655 105.737 394.124 106.393 391.218 106.393C387.999 106.393 385.155 105.752 382.687 104.471C380.249 103.19 378.202 101.393 376.546 99.0806C374.921 96.7681 373.687 94.0493 372.843 90.9243C371.999 87.7993 371.577 84.3931 371.577 80.7056ZM387.374 79.7212V80.7056C387.374 82.6118 387.499 84.3774 387.749 86.0024C387.999 87.6274 388.421 89.0649 389.015 90.3149C389.64 91.5337 390.452 92.4868 391.452 93.1743C392.483 93.8618 393.749 94.2056 395.249 94.2056C397.28 94.2056 398.952 93.7212 400.265 92.7524C401.608 91.7837 402.593 90.4087 403.218 88.6274C403.874 86.8462 404.155 84.7524 404.062 82.3462V78.6431C404.124 76.5806 403.983 74.7681 403.64 73.2056C403.296 71.6118 402.749 70.2837 401.999 69.2212C401.28 68.1587 400.358 67.3618 399.233 66.8306C398.14 66.2681 396.843 65.9868 395.343 65.9868C393.874 65.9868 392.624 66.3306 391.593 67.0181C390.593 67.7056 389.78 68.6743 389.155 69.9243C388.53 71.1431 388.077 72.5962 387.796 74.2837C387.515 75.9399 387.374 77.7524 387.374 79.7212ZM452.108 106.393C447.983 106.393 444.296 105.752 441.046 104.471C437.796 103.159 435.046 101.362 432.796 99.0806C430.577 96.7993 428.874 94.1743 427.687 91.2056C426.53 88.2368 425.952 85.0962 425.952 81.7837V80.0024C425.952 76.2837 426.468 72.8462 427.499 69.6899C428.53 66.5024 430.062 63.7212 432.093 61.3462C434.124 58.9712 436.671 57.1274 439.733 55.8149C442.796 54.4712 446.358 53.7993 450.421 53.7993C454.015 53.7993 457.233 54.3774 460.077 55.5337C462.921 56.6899 465.327 58.3462 467.296 60.5024C469.296 62.6587 470.812 65.2681 471.843 68.3306C472.905 71.3931 473.437 74.8306 473.437 78.6431V85.0649H431.999V75.1743H458.015V73.9556C458.046 72.2681 457.749 70.8306 457.124 69.6431C456.53 68.4556 455.655 67.5493 454.499 66.9243C453.343 66.2993 451.937 65.9868 450.28 65.9868C448.562 65.9868 447.14 66.3618 446.015 67.1118C444.921 67.8618 444.062 68.8931 443.437 70.2056C442.843 71.4868 442.421 72.9712 442.171 74.6587C441.921 76.3462 441.796 78.1274 441.796 80.0024V81.7837C441.796 83.6587 442.046 85.3618 442.546 86.8931C443.077 88.4243 443.827 89.7368 444.796 90.8306C445.796 91.8931 446.983 92.7212 448.358 93.3149C449.765 93.9087 451.358 94.2056 453.14 94.2056C455.296 94.2056 457.421 93.7993 459.515 92.9868C461.608 92.1743 463.405 90.8306 464.905 88.9556L472.077 97.4868C471.046 98.9556 469.577 100.377 467.671 101.752C465.796 103.127 463.546 104.252 460.921 105.127C458.296 105.971 455.358 106.393 452.108 106.393Z" fill="#A47149"/>
<path d="M532.593 37.2056V105.456H516.14V37.2056H532.593ZM559.124 65.6118V78.2681H527.905V65.6118H559.124ZM561.796 37.2056V49.9087H527.905V37.2056H561.796ZM564.89 80.6118V79.6274C564.89 75.9087 565.421 72.4868 566.483 69.3618C567.546 66.2056 569.108 63.4712 571.171 61.1587C573.233 58.8462 575.78 57.0493 578.812 55.7681C581.843 54.4556 585.343 53.7993 589.312 53.7993C593.312 53.7993 596.827 54.4556 599.858 55.7681C602.921 57.0493 605.483 58.8462 607.546 61.1587C609.608 63.4712 611.171 66.2056 612.233 69.3618C613.296 72.4868 613.827 75.9087 613.827 79.6274V80.6118C613.827 84.2993 613.296 87.7212 612.233 90.8774C611.171 94.0024 609.608 96.7368 607.546 99.0806C605.483 101.393 602.937 103.19 599.905 104.471C596.874 105.752 593.374 106.393 589.405 106.393C585.437 106.393 581.921 105.752 578.858 104.471C575.796 103.19 573.233 101.393 571.171 99.0806C569.108 96.7368 567.546 94.0024 566.483 90.8774C565.421 87.7212 564.89 84.2993 564.89 80.6118ZM580.687 79.6274V80.6118C580.687 82.5181 580.827 84.2993 581.108 85.9556C581.39 87.6118 581.858 89.0649 582.515 90.3149C583.171 91.5337 584.062 92.4868 585.187 93.1743C586.312 93.8618 587.718 94.2056 589.405 94.2056C591.062 94.2056 592.437 93.8618 593.53 93.1743C594.655 92.4868 595.546 91.5337 596.202 90.3149C596.858 89.0649 597.327 87.6118 597.608 85.9556C597.89 84.2993 598.03 82.5181 598.03 80.6118V79.6274C598.03 77.7837 597.89 76.0493 597.608 74.4243C597.327 72.7681 596.858 71.3149 596.202 70.0649C595.546 68.7837 594.655 67.7837 593.53 67.0649C592.405 66.3462 590.999 65.9868 589.312 65.9868C587.655 65.9868 586.265 66.3462 585.14 67.0649C584.046 67.7837 583.171 68.7837 582.515 70.0649C581.858 71.3149 581.39 72.7681 581.108 74.4243C580.827 76.0493 580.687 77.7837 580.687 79.6274ZM636.796 67.2993V105.456H620.999V54.7368H635.765L636.796 67.2993ZM651.796 54.3618L651.515 69.0337C650.89 68.9712 650.046 68.8931 648.983 68.7993C647.921 68.7056 647.03 68.6587 646.312 68.6587C644.468 68.6587 642.874 68.8774 641.53 69.3149C640.218 69.7212 639.124 70.3462 638.249 71.1899C637.405 72.0024 636.78 73.0337 636.374 74.2837C635.999 75.5337 635.827 76.9868 635.858 78.6431L632.999 76.7681C632.999 73.3618 633.327 70.2681 633.983 67.4868C634.671 64.6743 635.64 62.2524 636.89 60.2212C638.14 58.1587 639.655 56.5806 641.437 55.4868C643.218 54.3618 645.218 53.7993 647.437 53.7993C648.218 53.7993 648.983 53.8462 649.733 53.9399C650.515 54.0337 651.202 54.1743 651.796 54.3618ZM673.171 65.4712V105.456H657.374V54.7368H672.187L673.171 65.4712ZM671.249 78.3618L667.64 78.4556C667.64 74.8931 668.062 71.6118 668.905 68.6118C669.749 65.6118 670.999 63.0024 672.655 60.7837C674.312 58.5649 676.343 56.8462 678.749 55.6274C681.187 54.4087 683.999 53.7993 687.187 53.7993C689.405 53.7993 691.421 54.1431 693.233 54.8306C695.046 55.4868 696.608 56.5337 697.921 57.9712C699.233 59.3774 700.233 61.2212 700.921 63.5024C701.64 65.7524 701.999 68.4556 701.999 71.6118V105.456H686.202V73.6274C686.202 71.4712 685.952 69.8462 685.452 68.7524C684.983 67.6587 684.296 66.9243 683.39 66.5493C682.483 66.1743 681.374 65.9868 680.062 65.9868C678.687 65.9868 677.452 66.2993 676.358 66.9243C675.265 67.5493 674.327 68.4243 673.546 69.5493C672.796 70.6431 672.218 71.9399 671.812 73.4399C671.437 74.9399 671.249 76.5806 671.249 78.3618ZM700.218 78.3618L695.812 78.4556C695.812 74.8931 696.202 71.6118 696.983 68.6118C697.796 65.6118 698.999 63.0024 700.593 60.7837C702.218 58.5649 704.233 56.8462 706.64 55.6274C709.046 54.4087 711.843 53.7993 715.03 53.7993C717.343 53.7993 719.468 54.1431 721.405 54.8306C723.343 55.5181 725.015 56.6274 726.421 58.1587C727.827 59.6899 728.921 61.7212 729.702 64.2524C730.483 66.7524 730.874 69.8462 730.874 73.5337V105.456H715.03V73.5337C715.03 71.4399 714.78 69.8618 714.28 68.7993C713.812 67.7056 713.124 66.9712 712.218 66.5962C711.312 66.1899 710.233 65.9868 708.983 65.9868C707.483 65.9868 706.187 66.2993 705.093 66.9243C703.999 67.5493 703.077 68.4243 702.327 69.5493C701.608 70.6431 701.077 71.9399 700.733 73.4399C700.39 74.9399 700.218 76.5806 700.218 78.3618ZM766.265 92.7056V71.7993C766.265 70.3618 766.062 69.1274 765.655 68.0962C765.249 67.0649 764.608 66.2681 763.733 65.7056C762.858 65.1118 761.687 64.8149 760.218 64.8149C759.03 64.8149 758.015 65.0181 757.171 65.4243C756.327 65.8306 755.687 66.4399 755.249 67.2524C754.812 68.0649 754.593 69.0962 754.593 70.3462H738.796C738.796 68.0024 739.312 65.8306 740.343 63.8306C741.405 61.7993 742.905 60.0337 744.843 58.5337C746.812 57.0337 749.155 55.8774 751.874 55.0649C754.624 54.2212 757.687 53.7993 761.062 53.7993C765.093 53.7993 768.687 54.4712 771.843 55.8149C775.03 57.1587 777.546 59.1743 779.39 61.8618C781.233 64.5181 782.155 67.8618 782.155 71.8931V92.6587C782.155 95.9712 782.343 98.4868 782.718 100.206C783.093 101.893 783.624 103.377 784.312 104.659V105.456H768.468C767.718 103.893 767.155 101.987 766.78 99.7368C766.437 97.4556 766.265 95.1118 766.265 92.7056ZM768.187 74.4712L768.28 82.9087H761.296C759.827 82.9087 758.577 83.1118 757.546 83.5181C756.546 83.9243 755.733 84.4868 755.108 85.2056C754.515 85.8931 754.077 86.6743 753.796 87.5493C753.546 88.4243 753.421 89.3462 753.421 90.3149C753.421 91.2524 753.64 92.0962 754.077 92.8462C754.546 93.5649 755.171 94.1274 755.952 94.5337C756.733 94.9399 757.608 95.1431 758.577 95.1431C760.327 95.1431 761.812 94.8149 763.03 94.1587C764.28 93.4712 765.233 92.6431 765.89 91.6743C766.546 90.7056 766.874 89.7993 766.874 88.9556L770.343 95.4243C769.718 96.6743 768.999 97.9399 768.187 99.2212C767.405 100.502 766.421 101.69 765.233 102.784C764.077 103.846 762.655 104.721 760.968 105.409C759.28 106.065 757.233 106.393 754.827 106.393C751.702 106.393 748.827 105.752 746.202 104.471C743.608 103.19 741.53 101.409 739.968 99.1274C738.405 96.8149 737.624 94.1587 737.624 91.1587C737.624 88.5337 738.093 86.1899 739.03 84.1274C739.999 82.0649 741.452 80.3149 743.39 78.8774C745.327 77.4399 747.796 76.3462 750.796 75.5962C753.796 74.8462 757.327 74.4712 761.39 74.4712H768.187Z" fill="#A47149"/>
</svg>
