<svg width="56" height="56" viewBox="0 0 56 56" fill="none" xmlns="http://www.w3.org/2000/svg">
<rect width="56" height="56" rx="8" fill="white"/>
<path d="M28.3281 9.16211C29.8499 10.0587 31.9515 12.2361 33.21 14.1777C34.5523 16.2487 35.6226 19.1956 35.9902 20.4102C36.4857 19.9147 37.9462 18.6463 39.8252 17.5342C41.7045 16.422 44.2842 15.8239 45.3389 15.6641C45.9621 17.2461 46.5849 20.0746 46.585 21.9443C46.585 23.6807 46.2495 26.1469 45.9619 27.2656C46.7609 27.0898 48.6758 26.7003 49.9414 26.5469C51.2071 26.3935 53.2176 26.6105 54.0645 26.7383C54.0005 28.0646 53.7571 31.0816 53.2969 32.5391C52.7216 34.3608 50.8521 39.9226 44.7637 43.2305C39.893 45.8767 34.4564 45.531 31.6758 45.1475C31.6047 45.1803 31.4784 45.2311 31.3252 45.293C31.0309 45.4118 30.6357 45.5713 30.333 45.7227C29.9878 45.8953 29.1896 46.0614 28.5693 46.167L28.0322 46.25C27.4569 46.1701 26.1907 45.9528 25.7305 45.7227C25.4278 45.5714 25.0324 45.4117 24.7383 45.293C24.5853 45.2312 24.4598 45.1803 24.3887 45.1475C21.6082 45.531 16.1715 45.8766 11.3008 43.2305C5.21227 39.9226 3.34189 34.3608 2.7666 32.5391C2.30644 31.0815 2.06392 28.0645 2 26.7383C2.84698 26.6104 4.85742 26.3935 6.12305 26.5469C7.38843 26.7003 9.30228 27.0898 10.1016 27.2656C9.81393 26.1469 9.47852 23.6807 9.47852 21.9443C9.47853 20.0746 10.1024 17.2461 10.7256 15.6641C11.7805 15.8239 14.3592 16.4221 16.2383 17.5342C18.1176 18.6464 19.5788 19.9148 20.0742 20.4102C20.4418 19.1955 21.5122 16.2486 22.8545 14.1777C24.1969 12.1068 26.4982 9.76702 28.0322 9L28.3281 9.16211ZM27.5947 28.8662C25.3146 30.7375 21.7248 34.1332 22.0391 37.9082C22.2909 40.9305 23.8134 43.2782 28.0322 43.8535L28.4199 43.7939C32.3447 43.1303 33.7804 40.836 34.0244 37.9082C34.3596 33.8816 30.2535 30.2865 28.0322 28.5127L27.5947 28.8662ZM12.0674 30.4775C9.04122 28.9309 6.93772 28.8475 4.68457 28.9434C4.70055 29.215 4.79044 30.1229 5.02051 31.5801C5.30815 33.4018 7.03426 36.1827 7.51367 36.6621C7.99307 37.1415 8.66409 37.6689 9.7666 37.6689C10.8692 37.6689 11.6841 37.1892 11.9238 35.7031C12.1153 34.5144 10.693 34.0893 9.95801 34.0254V34.793C9.95796 35.0808 9.90992 35.703 9.19141 35.7031C8.47236 35.7031 7.94451 34.9365 7.89648 33.7861C7.84854 32.6356 9.52696 31.3408 11.3008 31.8682C13.0744 32.3956 14.2252 33.8818 13.8896 36.6621C13.6212 38.8865 11.3807 39.6027 10.2939 39.6826C10.2301 39.7785 10.4953 40.1713 12.0674 40.9766C13.2294 41.5718 13.6213 41.6984 14.0938 41.8506C14.4203 41.9558 14.7861 42.0733 15.4717 42.3672C16.7946 42.934 20.1191 43.0046 21.6377 42.9912C21.6644 42.9995 21.6869 42.9988 21.7041 42.9902C21.6825 42.9905 21.6601 42.991 21.6377 42.9912C21.3179 42.8922 20.3456 41.5659 19.3545 38.6279C18.0121 34.6488 14.2247 31.5802 12.0674 30.4775ZM51.3789 28.9434C49.1258 28.8475 47.0223 28.9308 43.9961 30.4775C41.8387 31.5802 38.0513 34.6489 36.709 38.6279C35.7183 41.5646 34.7469 42.8913 34.4268 42.9912C34.4044 42.991 34.3819 42.9905 34.3604 42.9902C34.3776 42.9988 34.4001 42.9995 34.4268 42.9912C35.9457 43.0046 39.2701 42.934 40.5928 42.3672C41.2786 42.0733 41.6441 41.9558 41.9707 41.8506C42.4431 41.6984 42.8341 41.5717 43.9961 40.9766C45.5673 40.1718 45.8338 39.7789 45.7705 39.6826C44.6838 39.6027 42.4433 38.8866 42.1748 36.6621C41.8393 33.8816 42.9899 32.3955 44.7637 31.8682C46.5374 31.341 48.2149 32.6356 48.167 33.7861C48.119 34.9364 47.592 35.703 46.873 35.7031C46.1543 35.7031 46.1055 35.0808 46.1055 34.793V34.0254C45.3703 34.0894 43.9491 34.5145 44.1406 35.7031C44.3803 37.1893 45.1952 37.6689 46.2979 37.6689C47.4003 37.6688 48.0714 37.1415 48.5508 36.6621C49.0303 36.1825 50.7563 33.4017 51.0439 31.5801C51.274 30.1229 51.3629 29.215 51.3789 28.9434ZM12.1152 18.3965C11.8595 19.3233 11.4823 21.3982 11.6357 22.2803C11.6561 22.3972 11.677 22.5453 11.7012 22.7168C11.9048 24.1628 12.3422 27.2655 14.6562 27.2656C16.7271 27.2656 16.1426 24.9652 15.5674 24.3896C15.3596 24.6773 14.8962 25.2996 14.4648 25.2998C13.9854 25.2998 13.6016 24.7726 13.6016 24.1973C13.6018 23.6219 14.1777 22.4718 15.376 22.4238C16.5745 22.3761 18.4233 23.2873 18.252 25.9717C18.1368 27.774 16.3825 29.1351 14.8965 29.4229C15.4718 29.7904 16.833 30.7754 17.6768 31.7725C18.5204 32.7695 19.7223 34.1688 20.2178 34.7441C20.2659 34.3283 20.6108 33.1525 21.6074 31.7725C22.6046 30.3918 23.2379 29.6306 23.4297 29.4229C22.7584 26.9779 20.3903 23.5251 18.6836 22.0879C16.8618 20.5538 14.0328 18.6362 12.1152 18.3965ZM43.9482 18.3965C42.0307 18.6362 39.2026 20.5539 37.3809 22.0879C35.6741 23.5251 33.3061 26.9779 32.6348 29.4229C32.8266 29.6307 33.4589 30.3919 34.4561 31.7725C35.4528 33.1526 35.7986 34.3283 35.8467 34.7441C36.3423 34.1686 37.5441 32.7694 38.3877 31.7725C39.2315 30.7753 40.5927 29.7904 41.168 29.4229C39.6819 29.1352 37.9267 27.7741 37.8115 25.9717C37.6402 23.287 39.49 22.3759 40.6885 22.4238C41.8867 22.4718 42.4617 23.6219 42.4619 24.1973C42.4619 24.7724 42.0789 25.2996 41.5996 25.2998C41.1683 25.2998 40.7049 24.6775 40.4971 24.3896C39.9218 24.9649 39.3366 27.2654 41.4072 27.2656C43.7214 27.2656 44.1586 24.1628 44.3623 22.7168C44.3865 22.5453 44.4074 22.3972 44.4277 22.2803C44.5811 21.3982 44.2039 19.3233 43.9482 18.3965ZM27.6553 12.0713C26.741 12.9338 25.5926 14.2917 24.6279 15.7598C23.5654 17.3767 22.3588 20.8258 21.9912 22.4238C22.3587 22.8552 23.2087 23.9002 23.6689 24.6289C24.1291 25.3574 24.8834 26.9296 25.2031 27.625L28.0322 25.3486L30.8604 27.625C31.18 26.9297 31.9344 25.3575 32.3945 24.6289C32.8547 23.9003 33.7047 22.8554 34.0723 22.4238C33.7047 20.8258 32.4981 17.3767 31.4355 15.7598C30.3331 14.0821 28.991 12.5484 28.0322 11.7334L27.6553 12.0713Z" fill="#6A994E"/>
</svg>
